<?xml version="1.0" standalone="no"?>
<!DOCTYPE svg PUBLIC "-//W3C//DTD SVG 20010904//EN"
 "http://www.w3.org/TR/2001/REC-SVG-20010904/DTD/svg10.dtd">
<svg version="1.0" xmlns="http://www.w3.org/2000/svg"
 width="225.000000pt" height="225.000000pt" viewBox="0 0 225.000000 225.000000"
 preserveAspectRatio="xMidYMid meet">

<g transform="translate(0.000000,225.000000) scale(0.100000,-0.100000)"
fill="#000000" stroke="none">
<path d="M0 1125 l0 -1125 1125 0 1125 0 0 1125 0 1125 -1125 0 -1125 0 0
-1125z m1412 567 c66 -41 78 -83 78 -275 l0 -167 -80 0 -80 0 0 135 c0 122 -2
137 -20 155 -13 13 -33 20 -60 20 l-40 0 0 -155 0 -155 -80 0 -80 0 0 135 c0
122 -2 137 -20 155 -13 13 -33 20 -60 20 l-40 0 0 -155 0 -155 -80 0 -80 0 0
77 0 78 77 77 78 78 -78 0 -77 0 0 75 0 75 80 0 80 0 0 -72 0 -73 78 78 77 78
145 -3 c131 -3 149 -5 182 -26z m168 -422 c0 -21 -40 -21 -41 0 0 10 -3 9 -8
-4 -7 -19 -8 -19 -13 2 -5 20 -3 22 28 19 23 -1 34 -7 34 -17z m-660 -207 c0
-63 1 -65 18 -50 41 38 111 29 153 -19 40 -46 31 -135 -18 -174 -31 -24 -99
-27 -131 -4 -20 14 -22 14 -22 0 0 -9 -9 -16 -20 -16 -19 0 -20 7 -20 165 0
158 1 165 20 165 18 0 20 -7 20 -67z m370 -98 c0 -158 -1 -165 -20 -165 -19 0
-20 7 -20 165 0 158 1 165 20 165 19 0 20 -7 20 -165z m-90 120 c0 -20 -5 -25
-25 -25 -20 0 -25 5 -25 25 0 20 5 25 25 25 20 0 25 -5 25 -25z m-825 -57 c14
-6 25 -16 25 -21 0 -6 8 -2 19 7 10 9 35 19 54 23 31 5 40 1 67 -25 29 -29 30
-33 30 -121 0 -84 -1 -91 -20 -91 -18 0 -20 7 -20 80 0 67 -3 83 -20 100 -24
24 -39 25 -66 6 -16 -12 -20 -29 -23 -100 -3 -77 -5 -86 -22 -86 -17 0 -19 8
-19 84 0 76 -2 86 -22 100 -26 18 -37 19 -58 6 -11 -7 -16 -34 -20 -97 -5 -82
-7 -88 -27 -91 -23 -3 -23 -2 -23 114 l0 117 28 -6 c15 -3 34 -2 42 4 20 12
44 11 75 -3z m404 -2 c60 -32 81 -96 52 -161 -45 -102 -192 -92 -221 14 -17
64 9 123 65 147 39 17 70 17 104 0z m421 -111 l0 -115 -25 0 -25 0 0 108 c0
60 3 112 7 115 3 4 15 7 25 7 16 0 18 -10 18 -115z m320 88 c20 -19 31 -39 32
-63 l3 -35 -92 -3 c-54 -2 -93 -7 -93 -13 0 -5 11 -21 25 -34 28 -29 74 -33
111 -9 37 25 54 3 18 -25 -36 -29 -111 -29 -147 0 -57 44 -57 144 0 189 39 31
105 27 143 -7z m121 -58 c19 -47 37 -85 40 -85 3 0 21 38 39 85 26 66 37 85
52 85 11 0 18 -4 16 -8 -67 -168 -125 -295 -135 -299 -24 -9 -27 5 -9 45 l17
38 -45 106 c-26 59 -46 109 -46 112 0 3 8 6 18 6 14 0 27 -21 53 -85z m342 65
c26 -20 52 -85 41 -102 -3 -4 -45 -8 -95 -8 -96 0 -104 -6 -64 -45 28 -29 65
-32 106 -8 22 13 32 14 40 6 18 -18 -47 -53 -98 -53 -105 0 -150 124 -73 201
36 37 103 40 143 9z m87 0 c0 -4 -6 -10 -13 -13 -7 -3 -13 3 -13 13 0 10 6 16
13 13 7 -3 13 -9 13 -13z m-1460 -372 c23 -51 27 -83 6 -55 -16 21 -66 23 -66
2 0 -8 -4 -15 -10 -15 -5 0 -10 4 -10 10 0 17 44 100 52 100 5 0 18 -19 28
-42z m167 -40 c-2 -18 -4 -6 -4 27 0 33 2 48 4 33 2 -15 2 -42 0 -60z m263 33
c0 -28 -4 -53 -10 -56 -6 -4 -10 15 -10 49 0 31 5 56 10 56 6 0 10 -22 10 -49z
m135 38 c11 -17 -2 -21 -24 -7 -29 18 -56 -9 -47 -46 7 -28 42 -36 64 -14 7 7
12 8 12 2 0 -16 -23 -34 -44 -34 -44 0 -68 48 -46 91 12 21 74 27 85 8z m-264
-6 c6 -46 3 -93 -5 -90 -13 4 -26 65 -19 84 5 14 22 18 24 6z m-197 -29 c9
-25 7 -64 -4 -64 -5 0 -10 14 -10 31 0 24 -4 30 -17 27 -11 -2 -19 -14 -21
-31 -2 -15 -8 -25 -13 -22 -10 7 -12 58 -2 68 13 13 61 7 67 -9z m158 -8 c6
-14 7 -33 3 -43 -7 -15 -9 -13 -14 12 -9 42 -41 47 -41 6 0 -17 -4 -31 -10
-31 -5 0 -10 18 -10 40 0 38 2 40 30 40 23 0 33 -6 42 -24z m128 9 c17 -21 -2
-65 -28 -65 -36 0 -55 43 -30 68 17 17 43 15 58 -3z m260 0 c26 -32 -13 -81
-47 -59 -23 14 -28 41 -13 59 16 19 44 19 60 0z m134 -18 c7 -19 6 -31 -2 -39
-9 -9 -12 -5 -12 20 0 22 -5 32 -15 32 -10 0 -15 -10 -15 -30 0 -16 -4 -30
-10 -30 -5 0 -10 14 -10 30 0 20 -5 30 -15 30 -10 0 -15 -10 -15 -30 0 -16 -4
-30 -10 -30 -5 0 -10 18 -10 40 l0 40 52 -2 c47 -3 54 -6 62 -31z m92 5 c7
-15 14 -20 18 -13 4 6 17 12 29 12 17 1 15 3 -8 9 -26 6 -28 8 -11 15 27 12
50 -7 54 -44 3 -29 1 -31 -32 -31 -19 0 -36 6 -39 13 -4 10 -7 10 -18 0 -7 -7
-19 -13 -27 -13 -8 0 -21 -8 -28 -17 -12 -16 -13 -10 -14 40 l0 58 32 -3 c22
-2 36 -10 44 -26z m161 -17 c1 -35 1 -36 -5 -10 -10 42 -42 47 -42 6 0 -17 -4
-31 -10 -31 -5 0 -10 18 -10 41 0 39 1 40 33 37 30 -3 32 -6 34 -43z m40 18
l10 -28 8 28 c4 15 11 27 16 27 14 0 11 -14 -13 -67 l-21 -48 -8 35 c-4 19
-10 45 -14 58 -10 32 9 27 22 -5z"/>
<path d="M949 971 c-35 -36 -37 -70 -6 -107 50 -58 127 -23 127 56 0 30 -6 43
-26 59 -36 28 -60 26 -95 -8z"/>
<path d="M675 975 c-43 -42 -31 -112 24 -134 24 -10 34 -10 59 3 36 18 46 45
38 92 -12 62 -77 84 -121 39z"/>
<path d="M1395 975 c-39 -38 -32 -45 50 -45 41 0 75 4 75 9 0 4 -9 20 -21 35
-27 34 -71 35 -104 1z"/>
<path d="M1861 974 c-12 -15 -21 -31 -21 -35 0 -5 34 -9 75 -9 41 0 75 4 75 9
0 4 -9 20 -21 35 -15 19 -30 26 -54 26 -24 0 -39 -7 -54 -26z"/>
<path d="M575 640 c-8 -13 -1 -24 14 -19 6 3 7 10 2 18 -6 10 -10 10 -16 1z"/>
<path d="M958 623 c6 -2 18 -2 25 0 6 3 1 5 -13 5 -14 0 -19 -2 -12 -5z"/>
<path d="M958 593 c6 -2 18 -2 25 0 6 3 1 5 -13 5 -14 0 -19 -2 -12 -5z"/>
<path d="M1210 610 c0 -13 7 -20 20 -20 13 0 20 7 20 20 0 13 -7 20 -20 20
-13 0 -20 -7 -20 -20z"/>
<path d="M1430 610 c0 -13 7 -20 20 -20 13 0 20 7 20 20 0 13 -7 20 -20 20
-13 0 -20 -7 -20 -20z"/>
<path d="M1518 593 c7 -3 16 -2 19 1 4 3 -2 6 -13 5 -11 0 -14 -3 -6 -6z"/>
</g>
</svg>
